<?xml version="1.0" encoding="utf-8"?>
<!-- Generator: Adobe Illustrator 22.0.0, SVG Export Plug-In . SVG Version: 6.00 Build 0)  -->
<svg version="1.1" id="Layer_1" xmlns="http://www.w3.org/2000/svg" xmlns:xlink="http://www.w3.org/1999/xlink" x="0px" y="0px"
	 viewBox="0 0 406 306" style="enable-background:new 0 0 406 306;" xml:space="preserve">
<style type="text/css">
	.st0{fill:#FFFFFF;}
	.st1{fill:#D1D3D4;}
	.st2{fill:#231F20;}
	.st3{fill:none;}
	.st4{fill:#E53170;}
</style>
<g id="_165_career_flatline">
	<path class="st0" d="M283.3,93.7h12.4c3,0,5.6-2,5.6-4.5c0-2.3-2.1-4.2-4.9-4.5c0.1-0.3,0.1-0.6,0.1-0.9c0-2.6-2.6-4.8-5.9-4.8
		c-0.9,0-1.7,0.2-2.5,0.5c0,0,0-0.1,0-0.2c0-2.6-2.6-4.8-5.9-4.8c-2.2-0.1-4.2,1-5.4,2.9c-0.6-0.1-1.3-0.2-1.9-0.2
		c-5.2,0-9.4,3.3-9.8,7.4c-3,0-5.5,2-5.5,4.5c0,2.5,2.5,4.5,5.6,4.5"/>
	<path class="st1" d="M295.7,94.2h-12.4c-0.3,0-0.5-0.2-0.5-0.5c0-0.3,0.2-0.5,0.5-0.5h12.4c2.8,0,5.1-1.8,5.1-4.1
		c0-2-1.9-3.7-4.5-4c-0.3,0-0.5-0.3-0.5-0.6c0,0,0,0,0-0.1c0.1-0.3,0.1-0.5,0.1-0.8c0-2.4-2.4-4.3-5.4-4.3c-0.8,0-1.6,0.2-2.3,0.5
		c-0.3,0.1-0.6,0-0.7-0.3c0-0.1,0-0.1,0-0.2l0.4-0.1l0,0h-0.4c0-2.3-2.4-4.3-5.4-4.3c-2-0.1-3.9,0.9-4.9,2.6
		c-0.1,0.2-0.3,0.3-0.5,0.3c-0.6-0.1-1.2-0.2-1.9-0.2c-4.9,0-9,3-9.3,7c0,0.3-0.2,0.5-0.5,0.5c-2.8,0-5.1,1.8-5.1,4.1
		s2.3,4.1,5.1,4.1c0.3,0,0.5,0.2,0.5,0.5s-0.2,0.5-0.5,0.5c-3.4,0-6.1-2.3-6.1-5.1c0-2.6,2.5-4.8,5.6-5.1c0.6-4.2,5-7.5,10.2-7.5
		c0.6,0,1.1,0,1.7,0.1c1.3-1.8,3.4-2.9,5.7-2.8c3.3,0,6,2,6.4,4.7c0.7-0.2,1.3-0.3,2-0.3c3.5,0,6.4,2.4,6.4,5.3c0,0.2,0,0.3,0,0.5
		c2.8,0.5,4.8,2.5,4.8,4.9C301.8,92,299,94.2,295.7,94.2z"/>
	<path class="st0" d="M329.1,187.7c8.1-1.2,4.8-9.7,0.4-9.7c-0.3-4.4-4.9-7.9-10.4-7.9c-0.7,0-1.4,0.1-2,0.2c-1.2-2-3.4-3.1-5.8-3
		c-3.5,0-6.3,2.3-6.3,5.1c0,0.1,0,0.1,0,0.2c-0.9-0.3-1.8-0.5-2.7-0.5c-3.5,0-6.3,2.3-6.3,5.1c0,0.3,0,0.7,0.1,1
		c-3,0.3-5.2,2.3-5.2,4.8c0,2.7,2.7,4.9,6,4.9"/>
	<path class="st1" d="M329.1,188.2c-0.3,0-0.5-0.2-0.5-0.4c0-0.3,0.2-0.5,0.4-0.6c3-0.4,4.7-2,4.5-4.3c-0.2-2.3-2.1-4.4-4.1-4.4
		c-0.3,0-0.5-0.2-0.5-0.5c-0.3-4.2-4.7-7.5-9.9-7.5c-0.7,0-1.4,0-2,0.2c-0.2,0-0.4-0.1-0.5-0.3c-1.1-1.8-3.2-2.9-5.3-2.8
		c-3.2,0-5.8,2-5.8,4.6v0.1c0,0.2-0.1,0.3-0.2,0.4c-0.1,0.1-0.3,0.1-0.5,0.1c-0.8-0.3-1.7-0.5-2.5-0.5c-3.2,0-5.8,2-5.8,4.6
		c0,0.3,0,0.6,0.1,0.9c0,0.1,0,0.3-0.1,0.4c-0.1,0.1-0.2,0.2-0.4,0.2c-2.7,0.3-4.8,2.1-4.8,4.3c0,2.4,2.4,4.3,5.5,4.3
		c0.3,0,0.5,0.2,0.5,0.5c0,0.3-0.2,0.5-0.5,0.5c-3.6,0-6.5-2.4-6.5-5.4c0-2.6,2.2-4.7,5.2-5.2c0-0.2,0-0.4,0-0.6c0-3,3-5.6,6.8-5.6
		c0.8,0,1.5,0.1,2.2,0.3c0.3-2.8,3.2-5.1,6.7-5.1c2.4-0.1,4.7,1.1,6,3c0.6-0.1,1.2-0.1,1.8-0.1c5.6,0,10.2,3.5,10.9,7.9
		c2.6,0.5,4.4,2.7,4.6,5.3C334.7,185.7,332.7,187.7,329.1,188.2L329.1,188.2z"/>
	<polygon class="st0" points="184.7,214.3 149.5,194 184.7,173.6 220,194 	"/>
	<path class="st2" d="M184.7,214.8c-0.1,0-0.2,0-0.3-0.1l-35.3-20.4c-0.2-0.1-0.3-0.4-0.2-0.7c0-0.1,0.1-0.1,0.2-0.2l35.2-20.3
		c0.2-0.1,0.4-0.1,0.5,0l35.3,20.4c0.2,0.1,0.3,0.4,0.2,0.7c0,0.1-0.1,0.1-0.2,0.2L185,214.8C184.9,214.9,184.8,214.9,184.7,214.8z
		 M150.5,194l34.2,19.8L219,194l-34.2-19.8L150.5,194z"/>
	<polygon class="st0" points="220,242.3 184.7,262.7 184.7,214.3 220,194 	"/>
	<path class="st2" d="M184.7,263.2c-0.1,0-0.2,0-0.3-0.1c-0.2-0.1-0.3-0.3-0.3-0.4v-48.3c0-0.2,0.1-0.3,0.3-0.4l35.3-20.3
		c0.2-0.1,0.4-0.1,0.5,0c0.2,0.1,0.3,0.3,0.3,0.4v48.3c0,0.2-0.1,0.3-0.3,0.4L185,263.1C184.9,263.2,184.8,263.2,184.7,263.2z
		 M185.2,214.6v47.2l34.2-19.8v-47.2L185.2,214.6z M220,242.3L220,242.3z"/>
	<polygon class="st0" points="184.7,262.7 149.5,242.3 149.5,194 184.7,214.3 	"/>
	<path class="st2" d="M184.7,263.2c-0.1,0-0.2,0-0.3-0.1l-35.3-20.4c-0.2-0.1-0.3-0.3-0.3-0.4V194c0-0.3,0.2-0.5,0.5-0.5
		c0.1,0,0.2,0,0.3,0.1l35.3,20.4c0.2,0.1,0.3,0.3,0.3,0.4v48.3c0,0.2-0.1,0.3-0.3,0.4C184.9,263.2,184.8,263.2,184.7,263.2z
		 M150,242l34.2,19.8v-47.2L150,194.9V242z"/>
	<polygon class="st0" points="283.6,228.1 253.1,210.5 283.6,192.9 314.1,210.5 	"/>
	<path class="st2" d="M283.6,228.6c-0.1,0-0.2,0-0.3-0.1l-30.5-17.6c-0.2-0.1-0.3-0.4-0.2-0.7c0-0.1,0.1-0.2,0.2-0.2l30.5-17.6
		c0.2-0.1,0.4-0.1,0.5,0l30.5,17.6c0.2,0.1,0.3,0.4,0.2,0.7c0,0.1-0.1,0.2-0.2,0.2l-30.5,17.6C283.8,228.6,283.7,228.6,283.6,228.6z
		 M254.1,210.5l29.4,17l29.5-17l-29.5-17L254.1,210.5z"/>
	<polygon class="st0" points="314.1,238.5 283.6,256.1 283.6,228.1 314.1,210.5 	"/>
	<path class="st2" d="M283.6,256.7c-0.1,0-0.2,0-0.3-0.1c-0.2-0.1-0.3-0.3-0.3-0.4v-28c0-0.2,0.1-0.3,0.3-0.4l30.5-17.6
		c0.2-0.1,0.4-0.1,0.5,0c0.2,0.1,0.3,0.3,0.3,0.4v28c0,0.2-0.1,0.3-0.3,0.4l-30.5,17.6C283.8,256.6,283.7,256.6,283.6,256.7z
		 M284.1,228.4v26.9l29.5-17v-26.9L284.1,228.4z M314.1,238.6L314.1,238.6z"/>
	<polygon class="st0" points="283.6,256.1 253.1,238.5 253.1,210.5 283.6,228.1 	"/>
	<path class="st2" d="M283.6,256.7c-0.1,0-0.2,0-0.3-0.1L252.9,239c-0.2-0.1-0.3-0.3-0.3-0.4v-28c0-0.2,0.1-0.3,0.3-0.4
		c0.2-0.1,0.4-0.1,0.5,0l30.5,17.6c0.2,0.1,0.3,0.3,0.3,0.4v28c0,0.2-0.1,0.3-0.3,0.4C283.8,256.6,283.7,256.6,283.6,256.7z
		 M253.6,238.3l29.4,17v-26.9l-29.4-17V238.3z"/>
	<polygon class="st0" points="108.8,166.5 83.1,151.7 108.8,136.9 134.5,151.7 	"/>
	<path class="st2" d="M108.8,167c-0.1,0-0.2,0-0.3-0.1l-25.7-14.8c-0.2-0.1-0.3-0.3-0.3-0.4c0-0.2,0.1-0.4,0.3-0.4l25.7-14.8
		c0.2-0.1,0.4-0.1,0.5,0l25.7,14.8c0.2,0.1,0.3,0.3,0.3,0.4c0,0.2-0.1,0.3-0.3,0.4L109.1,167C109,167,108.9,167.1,108.8,167z
		 M84.2,151.7l24.7,14.2l24.7-14.2l-24.7-14.2L84.2,151.7z"/>
	<polygon class="st0" points="134.5,175.1 108.8,189.9 108.8,166.5 134.5,151.7 	"/>
	<path class="st2" d="M108.8,190.4c-0.1,0-0.2,0-0.3-0.1c-0.2-0.1-0.3-0.3-0.3-0.4v-23.3c0-0.2,0.1-0.3,0.3-0.4l25.7-14.8
		c0.2-0.1,0.3-0.1,0.5,0c0.2,0.1,0.3,0.3,0.3,0.4v23.4c0,0.2-0.1,0.3-0.3,0.4l-25.7,14.8C109,190.5,108.9,190.5,108.8,190.4z
		 M109.3,166.8v22.2l24.7-14.2v-22.2L109.3,166.8z M134.5,175.1L134.5,175.1z"/>
	<polygon class="st0" points="108.8,189.9 83.1,175.1 83.1,151.7 108.8,166.5 	"/>
	<path class="st2" d="M108.8,190.4c-0.1,0-0.2,0-0.3-0.1l-25.7-14.8c-0.2-0.1-0.3-0.3-0.3-0.4v-23.4c0-0.2,0.1-0.4,0.3-0.4
		c0.2-0.1,0.3-0.1,0.5,0l25.7,14.8c0.2,0.1,0.3,0.3,0.3,0.4v23.3c0,0.2-0.1,0.3-0.3,0.4C109,190.4,108.9,190.4,108.8,190.4z
		 M83.7,174.8l24.7,14.2v-22.2l-24.7-14.2V174.8z"/>
	<path class="st0" d="M111.4,207.1h20.6c5.2,0,9.3-3.4,9.3-7.6c0-3.9-3.6-7-8.2-7.5c0.1-0.5,0.2-1,0.2-1.5c0-4.4-4.4-7.9-9.8-7.9
		c-1.4,0-2.9,0.3-4.2,0.8c0-0.1,0-0.2,0-0.3c0-4.4-4.4-7.9-9.8-7.9c-4.1,0-7.5,2-9,4.8c-1.1-0.2-2.2-0.3-3.2-0.3
		c-8.6,0-15.7,5.5-16.2,12.4c-5.1,0.1-9.2,3.4-9.2,7.6c0,4.1,4.2,7.6,9.3,7.6"/>
	<path class="st1" d="M132.1,207.6h-20.6c-0.3,0-0.5-0.2-0.5-0.5c0-0.3,0.2-0.5,0.5-0.5h20.6c4.9,0,8.8-3.2,8.8-7.1
		c0-3.6-3.3-6.6-7.7-7c-0.1,0-0.3-0.1-0.4-0.2c-0.1-0.1-0.1-0.3-0.1-0.4c0.1-0.5,0.2-0.9,0.2-1.4c0-4.1-4.2-7.4-9.3-7.4
		c-1.4,0-2.8,0.3-4.1,0.8c-0.2,0.1-0.3,0-0.5-0.1c-0.1-0.1-0.2-0.3-0.2-0.4V183c0-4.1-4.2-7.4-9.3-7.4c-3.7,0-7,1.8-8.5,4.5
		c-0.1,0.2-0.3,0.3-0.5,0.3c-1-0.2-2.1-0.3-3.2-0.3c-8.3,0-15.2,5.2-15.7,11.9c0,0.3-0.2,0.5-0.5,0.5c-4.8,0.1-8.7,3.2-8.7,7.1
		s4,7.1,8.8,7.1c0.3,0,0.5,0.2,0.5,0.5s-0.2,0.5-0.5,0.5c-5.4,0-9.8-3.6-9.8-8.1c0-4.3,4.1-7.8,9.2-8.1c0.8-7,8.1-12.4,16.7-12.4
		c1,0,2,0.1,3,0.2c2.1-3.1,5.6-4.8,9.2-4.7c5.5,0,10,3.6,10.3,8c1.2-0.4,2.5-0.6,3.7-0.6c5.7,0,10.3,3.8,10.3,8.5
		c0,0.4,0,0.7-0.1,1.1c4.7,0.7,8.1,4.1,8.1,7.9C141.9,204,137.5,207.6,132.1,207.6z"/>
	<polygon class="st0" points="114.1,94.2 129,85.6 114.1,77 99.2,85.6 	"/>
	<path class="st2" d="M114.1,94.7c-0.1,0-0.2,0-0.3-0.1L99,86c-0.2-0.1-0.3-0.4-0.2-0.7c0-0.1,0.1-0.1,0.2-0.2l14.9-8.6
		c0.2-0.1,0.4-0.1,0.5,0l14.9,8.6c0.2,0.1,0.3,0.4,0.2,0.7c0,0.1-0.1,0.1-0.2,0.2l-14.9,8.6C114.3,94.7,114.2,94.7,114.1,94.7z
		 M100.2,85.6l13.9,8l13.9-8l-13.9-8L100.2,85.6z"/>
	<polygon class="st0" points="99.2,102.8 114.1,111.4 114.1,94.2 99.2,85.6 	"/>
	<path class="st2" d="M114.1,111.9c-0.1,0-0.2,0-0.3-0.1L99,103.3c-0.2-0.1-0.3-0.3-0.3-0.4V85.6c0-0.2,0.1-0.4,0.3-0.4
		c0.2-0.1,0.4-0.1,0.5,0l14.9,8.6c0.2,0.1,0.3,0.3,0.3,0.4v17.2c0,0.2-0.1,0.3-0.3,0.4C114.3,111.9,114.2,111.9,114.1,111.9z
		 M99.7,102.5l13.9,8v-16l-13.9-8V102.5z"/>
	<polygon class="st0" points="114.1,111.4 129,102.8 129,85.6 114.1,94.2 	"/>
	<path class="st2" d="M114.1,111.9c-0.1,0-0.2,0-0.3-0.1c-0.2-0.1-0.3-0.3-0.3-0.4V94.2c0-0.2,0.1-0.4,0.3-0.4l14.9-8.6
		c0.2-0.1,0.4-0.1,0.5,0c0.2,0.1,0.3,0.3,0.3,0.4v17.2c0,0.2-0.1,0.3-0.3,0.4l-14.9,8.6C114.3,111.9,114.2,111.9,114.1,111.9z
		 M114.6,94.5v16l13.9-8v-16L114.6,94.5z"/>
	<line class="st3" x1="113.9" y1="85.6" x2="113.9" y2="43.3"/>
	<polygon class="st0" points="179,67.9 167.4,61.3 179,54.6 190.5,61.3 	"/>
	<path class="st1" d="M179,68.4c-0.1,0-0.2,0-0.3-0.1l-11.6-6.7c-0.2-0.1-0.3-0.4-0.2-0.7c0-0.1,0.1-0.1,0.2-0.2l11.6-6.7
		c0.2-0.1,0.4-0.1,0.5,0l11.6,6.7c0.2,0.1,0.3,0.4,0.2,0.7c0,0.1-0.1,0.1-0.2,0.2l-11.6,6.7C179.2,68.4,179.1,68.5,179,68.4z
		 M168.4,61.3l10.5,6.1l10.5-6.1L179,55.2L168.4,61.3z"/>
	<polygon class="st0" points="190.5,72.6 179,79.3 179,67.9 190.5,61.3 	"/>
	<path class="st1" d="M179,79.8c-0.1,0-0.2,0-0.3-0.1c-0.2-0.1-0.3-0.3-0.3-0.4V67.9c0-0.2,0.1-0.4,0.3-0.4l11.6-6.7
		c0.2-0.1,0.6-0.1,0.7,0.2c0,0.1,0.1,0.2,0.1,0.3v11.4c0,0.2-0.1,0.3-0.3,0.4l-11.6,6.7C179.1,79.8,179.1,79.8,179,79.8z
		 M179.5,68.2v10.2l10.5-6.1V62.1L179.5,68.2z M190.5,72.6L190.5,72.6z"/>
	<polygon class="st0" points="179,79.3 167.4,72.6 167.4,61.3 179,67.9 	"/>
	<path class="st1" d="M179,79.8c-0.1,0-0.2,0-0.3-0.1l-11.6-6.7c-0.2-0.1-0.3-0.3-0.3-0.4V61.3c0-0.2,0.1-0.4,0.3-0.4
		c0.2-0.1,0.4-0.1,0.5,0l11.6,6.7c0.2,0.1,0.3,0.3,0.3,0.4v11.4c0,0.2-0.1,0.3-0.3,0.4C179.1,79.8,179.1,79.8,179,79.8z M167.9,72.3
		l10.5,6.1V68.3l-10.5-6.1V72.3z"/>
	<path class="st2" d="M210.6,76.5h-0.1c-0.8,0-1.5-0.4-2.1-0.9c-0.5-0.6-0.8-1.4-0.8-2.2c0-0.8,0.4-1.6,1-2.1
		c0.6-0.5,1.4-0.8,2.2-0.8c0.8,0,1.5,0.4,2.1,1c1.1,1.3,1,3.2-0.2,4.3C212,76.3,211.3,76.5,210.6,76.5L210.6,76.5z M210.6,71.5
		c-0.5,0-1,0.2-1.4,0.5c-0.4,0.4-0.6,0.9-0.6,1.4l0,0c0,0.5,0.2,1,0.5,1.4c0.4,0.4,0.9,0.6,1.4,0.6c1.1,0.3,2.2-0.4,2.5-1.5
		c0.3-1.1-0.4-2.2-1.5-2.5C211.2,71.5,210.9,71.5,210.6,71.5L210.6,71.5z M208.1,73.4L208.1,73.4z"/>
	<path class="st0" d="M228.1,84.9c1.1,0,2.3-0.2,3.6-0.2s2.8-0.5,2.9-1.7c0.1-1-1.2-1.9-0.9-2.9c0.1-0.3,0.3-0.5,0.4-0.7
		c3.8-4.7,3.2-11.5-1.4-15.5c0.3,0.1,0.7-0.2,0.8-0.5c0-0.4-0.1-0.7-0.4-1c-0.9-1-2-1.8-3.3-2.2c-4.1-1.4-8.4-1.6-12.6-0.4
		c-3.2,0.8-7,3.2-6.7,7c0.1,1.4,1.1,2.6,2.5,2.9c0.6,4.1,2.6,6.9,5.2,10c1.7,2.1,3.9,3.7,6.4,4.7C225.7,84.7,226.9,85,228.1,84.9z"
		/>
	<path class="st2" d="M228,85.4c-1.2,0-2.4-0.2-3.6-0.7c-2.6-1-4.9-2.7-6.6-4.9c-2.3-2.7-4.6-5.7-5.2-9.9c-1.4-0.4-2.5-1.7-2.6-3.3
		c-0.3-3.9,3.4-6.6,7.1-7.5c4.2-1.1,8.7-1,12.9,0.4c1.4,0.4,2.6,1.2,3.5,2.3c0.3,0.4,0.5,0.9,0.4,1.4c0,0.3-0.1,0.5-0.3,0.7
		c4.2,4.2,4.6,11,0.9,15.6c-0.2,0.2-0.3,0.3-0.4,0.5c-0.1,0.3,0.1,0.7,0.4,1.2c0.3,0.5,0.5,1.1,0.5,1.6c-0.1,1.2-1.3,2-3.3,2.2
		l-1.5,0.1C229.4,85.4,228.8,85.4,228,85.4L228,85.4L228,85.4z M228.1,84.9L228.1,84.9z M223,59.6c-1.9,0-3.8,0.2-5.6,0.7
		c-2.5,0.6-6.7,2.7-6.4,6.5c0,1.2,0.9,2.1,2,2.4c0.2,0,0.4,0.2,0.5,0.4c0.5,3.7,2.2,6.4,5.1,9.7c1.7,2,3.8,3.6,6.3,4.6
		c1,0.4,2.1,0.6,3.2,0.6h0.1c0.6,0,1.3-0.1,2-0.1l1.6-0.1c0.4,0,2.3-0.2,2.4-1.2c0-0.4-0.2-0.8-0.4-1.1c-0.4-0.6-0.6-1.3-0.4-1.9
		c0.1-0.3,0.3-0.6,0.5-0.8c3.6-4.5,3.1-11.1-1.3-14.8c-0.2-0.2-0.3-0.5-0.1-0.7c0.1-0.2,0.4-0.3,0.6-0.2c0,0,0.1-0.1,0.1-0.2
		c0-0.2-0.1-0.5-0.3-0.6c-0.8-1-1.9-1.7-3-2C227.6,59.9,225.3,59.5,223,59.6L223,59.6z"/>
	<path class="st0" d="M211.7,75.5c0,0-3,4.7-2.4,5.6c0.6,1,2.8,0.3,2.8,0.3"/>
	<path class="st2" d="M210.6,82.2c-0.7,0.1-1.4-0.2-1.8-0.8c-0.7-1.1,1.2-4.3,2.4-6.2c0.2-0.2,0.5-0.3,0.7-0.1
		c0.2,0.2,0.3,0.5,0.1,0.7c-1.5,2.2-2.6,4.6-2.4,5.1s1.6,0.3,2.2,0.1c0.3-0.1,0.5,0.1,0.6,0.3c0.1,0.3-0.1,0.6-0.3,0.6
		C211.7,82.1,211.2,82.2,210.6,82.2z"/>
	<path class="st0" d="M212.3,69.3c-2,1.6-1.4,5-1.3,7.2c0,3.1,0.1,6.2,0.3,9.3c0.1,2,5.2,2,6.1,1.4l-0.8,7.8l10.7-4.2l-0.5-6.4
		c-2.4-0.2-4.5-1.7-5.5-3.9c-2-4-1.8-12.7-1.8-12.7S214.2,67.7,212.3,69.3z"/>
	<path class="st2" d="M216.6,95.5c-0.1,0-0.2,0-0.3-0.1c-0.1-0.1-0.2-0.3-0.2-0.5l0.7-7c-1.6,0.3-3.3,0.1-4.8-0.5
		c-0.7-0.3-1.1-0.9-1.2-1.6c-0.2-3-0.3-6.2-0.3-9.3c0-0.4,0-0.8-0.1-1.2c-0.1-2.2-0.2-4.9,1.6-6.4l0,0c2-1.7,7.4-1.7,7.6-1.7
		c0.1,0,0.3,0.1,0.4,0.2c0.1,0.1,0.1,0.2,0.1,0.4c0,0.1-0.2,8.6,1.7,12.4c1.8,3.7,4.9,3.7,5,3.7l0,0c0.3,0,0.5,0.2,0.5,0.5l0.5,6.4
		c0,0.2-0.1,0.4-0.3,0.5l-10.7,4.1C216.8,95.5,216.7,95.5,216.6,95.5z M217.4,86.7c0.1,0,0.2,0,0.3,0.1c0.2,0.1,0.3,0.3,0.2,0.5
		l-0.7,6.9l9.5-3.7l-0.4-5.6c-2.4-0.4-4.5-2-5.5-4.2c-1.8-3.5-1.8-10.4-1.8-12.4c-1.7,0-5.2,0.4-6.5,1.4l0,0
		c-1.4,1.2-1.3,3.6-1.2,5.6c0,0.4,0,0.8,0.1,1.2c0,3,0.1,6.2,0.3,9.3c0,0.3,0.2,0.5,0.7,0.7c1.5,0.6,3.1,0.7,4.7,0.3
		C217.2,86.7,217.3,86.7,217.4,86.7z"/>
	<path class="st0" d="M211.4,83.5c1.2,0.8,2.7,0.5,3.5-0.7c0.1-0.1,0.1-0.2,0.2-0.3"/>
	<path class="st2" d="M212.9,84.4c-0.6,0-1.2-0.2-1.8-0.5c-0.2-0.1-0.3-0.5-0.2-0.7c0,0,0,0,0,0c0.1-0.2,0.5-0.3,0.7-0.2
		c0.5,0.3,1.2,0.4,1.8,0.3c0.5-0.2,1-0.6,1.2-1.1c0.1-0.2,0.4-0.4,0.7-0.2c0,0,0,0,0,0c0.2,0.1,0.3,0.4,0.2,0.7
		c-0.3,0.8-1,1.4-1.8,1.6C213.4,84.4,213.2,84.5,212.9,84.4z"/>
	<path class="st2" d="M224.4,77.8c-0.2,0-0.4-0.2-0.5-0.4c-0.1-0.3-0.2-0.7-0.3-1c-1.7-0.3-14.1-2.2-15.6-2.5
		c-0.3,0-0.5-0.3-0.4-0.6c0-0.3,0.3-0.5,0.6-0.4l15.7,2.5c0.2,0,0.6,0.1,1,1.8c0.1,0.3-0.1,0.5-0.4,0.6c0,0,0,0,0,0L224.4,77.8z
		 M223.7,76.4L223.7,76.4z M223.7,76.4L223.7,76.4z"/>
	<path class="st0" d="M217.6,77.5c0.1-0.8,0.4-1.5,0.9-2.1c0.3-0.5,0.7-1,1.1-1.4c0.4-0.4,1.1-0.6,1.7-0.5c0.5,0.1,1,0.5,1.2,1
		c0.2,0.5,0.4,1,0.4,1.5c0.1,2.4-1,4.6-3,5.9l0.2-0.2"/>
	<path class="st2" d="M219.9,82.3c-0.1,0-0.3-0.1-0.4-0.2c-0.2-0.2-0.2-0.5,0-0.7l0.2-0.2c0.1-0.1,0.2-0.1,0.3-0.2
		c1.6-1.2,2.5-3.2,2.4-5.2c0-0.5-0.1-0.9-0.3-1.3c-0.2-0.4-0.5-0.6-0.9-0.7c-0.5-0.1-0.9,0.1-1.2,0.4c-0.4,0.4-0.7,0.8-1,1.3
		c-0.4,0.5-0.7,1.2-0.8,1.9c0,0.3-0.2,0.5-0.5,0.5c0,0,0,0,0,0l0,0c-0.3,0-0.5-0.2-0.5-0.5c0,0,0,0,0,0c0.1-0.9,0.4-1.7,0.9-2.4
		c0.3-0.6,0.7-1.1,1.2-1.5c0.6-0.5,1.3-0.8,2.1-0.6c0.7,0.2,1.2,0.6,1.6,1.2c0.3,0.5,0.4,1.1,0.5,1.8c0.1,2.6-1.1,5-3.3,6.4
		C220,82.3,220,82.3,219.9,82.3z"/>
	
		<ellipse transform="matrix(5.007005e-02 -0.9987 0.9987 5.007005e-02 128.9769 281.7642)" class="st2" cx="212.6" cy="73.1" rx="1.1" ry="0.4"/>
	<path class="st0" d="M229.5,92.7l-0.9-3.4l-13.7,0.9l-1.5,5.1C218.9,96.1,224.5,95.2,229.5,92.7z"/>
	<path class="st2" d="M217.3,96.1c-1.3,0-2.7-0.1-4-0.3c-0.1,0-0.3-0.1-0.3-0.2c-0.1-0.1-0.1-0.3-0.1-0.4l1.5-5.1
		c0.1-0.2,0.2-0.4,0.5-0.4l13.7-0.9c0.2,0,0.5,0.1,0.5,0.4l0.9,3.4c0.1,0.2-0.1,0.5-0.3,0.6C225.8,95.1,221.6,96.1,217.3,96.1z
		 M214.1,94.8c5.1,0.6,10.2-0.2,14.8-2.4l-0.7-2.6l-12.9,0.8L214.1,94.8z"/>
	<path class="st0" d="M179.9,113c0,0-4.2-5.4-4.6-6.5c-0.3-1.1-0.4-3.4-1.3-5s-3.1-2.9-4.1-0.7c0,0-0.6-3.6-3-1.6
		c-2.2,1.7-3,4.6-2.1,7.2c0.7,2.8,11.3,16.6,11.3,16.6"/>
	<path class="st2" d="M176.1,123.6c-0.2,0-0.3-0.1-0.4-0.2c-0.4-0.6-10.6-13.9-11.3-16.8c-0.9-2.8,0-5.9,2.3-7.8
		c0.6-0.6,1.4-0.9,2.2-0.7c0.6,0.3,1.1,0.8,1.3,1.5c0.3-0.3,0.8-0.5,1.2-0.5c1.4,0.1,2.5,0.9,3.1,2.1c0.5,1.2,0.9,2.4,1,3.7
		c0.1,0.5,0.2,0.9,0.3,1.4c1.3,2.2,2.8,4.3,4.5,6.4c0.2,0.2,0.1,0.5-0.1,0.7c-0.2,0.2-0.5,0.1-0.7-0.1c-0.7-0.9-4.3-5.5-4.6-6.7
		c-0.1-0.5-0.2-1-0.3-1.5c-0.1-1.2-0.4-2.3-0.9-3.4c-0.4-0.9-1.2-1.5-2.2-1.6c-0.4,0-0.8,0.3-1,0.9c-0.1,0.3-0.4,0.4-0.7,0.3
		c-0.2-0.1-0.3-0.2-0.3-0.4c-0.1-0.4-0.4-1.5-1-1.7c-0.4-0.1-0.9,0.2-1.2,0.5c-2,1.6-2.8,4.3-2,6.7c0.6,2.2,8.3,12.6,11.2,16.4
		c0.2,0.2,0.1,0.5-0.1,0.7C176.2,123.5,176.2,123.6,176.1,123.6z"/>
	<path class="st0" d="M270.9,126.1c0,0,1.2,2.7,1.9,4.6c0.5,1.9,0.7,3.8,0.8,5.7c0.5-0.6,1.3-0.7,1.8-1.2c0,0.8,0.2,1.6,0.5,2.4
		c0.3,0.8,1,1.3,1.9,1.5c0.4,0,0.9,0,1.3-0.2c1.5-0.5,4.1-1.3,4.4-3.1c0.1-0.7,0-1.4-0.4-2c-1.1-2.7-6.1-9.8-7-11"/>
	<path class="st2" d="M278.1,139.7h-0.3c-1-0.2-1.8-0.8-2.3-1.8c-0.3-0.6-0.4-1.1-0.5-1.7l-0.2,0.1c-0.3,0.1-0.6,0.3-0.8,0.6
		c-0.1,0.2-0.4,0.2-0.5,0.1c-0.2-0.1-0.3-0.2-0.3-0.5c-0.1-1.9-0.3-3.7-0.8-5.6c-0.6-1.9-1.9-4.6-1.9-4.6c-0.1-0.2,0-0.5,0.2-0.7
		c0,0,0,0,0,0c0.3-0.1,0.6,0,0.7,0.2c0,0,0,0,0,0c0.1,0.1,1.2,2.7,1.9,4.7c0.4,1.6,0.7,3.2,0.8,4.9l0.3-0.2c0.3-0.1,0.5-0.3,0.7-0.5
		c0.1-0.1,0.3-0.2,0.5-0.1c0.2,0.1,0.3,0.2,0.3,0.4c0,0.8,0.2,1.5,0.5,2.2c0.3,0.6,0.8,1.1,1.5,1.2c0.4,0,0.7,0,1.1-0.2
		c1.7-0.5,3.8-1.3,4.1-2.8c0.1-0.6-0.1-1.2-0.3-1.8c-1-2.4-5.4-8.8-6.9-10.8c-0.2-0.2-0.1-0.5,0.1-0.7c0.2-0.2,0.5-0.1,0.7,0.1l0,0
		c0.1,0.1,5.8,8,7,11.1c0.4,0.7,0.5,1.5,0.4,2.3c-0.4,2.2-3.5,3.1-4.8,3.5C278.9,139.6,278.5,139.7,278.1,139.7z"/>
	<path class="st0" d="M204.3,191c0,0,1.7,7.7-1.4,9.1c-3.1,1.4-20.6-10.6-19.7-13.5c0.9-3,6.5-4.4,11.8-0.9
		C198,187.7,201.1,189.5,204.3,191z"/>
	<path class="st2" d="M202.3,200.7c-3.5,0-12.3-5.8-16.2-9.3c-4-3.5-3.5-4.6-3.3-5c0.5-1.4,1.6-2.5,3-2.9c2.8-1,6.4-0.4,9.5,1.7
		c2.9,2,6,3.7,9.2,5.3c0.2,0.1,0.3,0.2,0.3,0.4c0.2,0.8,1.7,8.1-1.7,9.7C202.8,200.7,202.6,200.7,202.3,200.7z M188.6,184.1
		c-0.8,0-1.7,0.1-2.5,0.4c-1.1,0.3-2,1.1-2.4,2.2c-0.1,0.3,0.4,1.6,3,3.9c5.4,4.8,14.2,9.8,15.9,9c2.2-0.9,1.6-6,1.2-8.2
		c-3.2-1.6-6.2-3.3-9.1-5.3C192.9,184.9,190.8,184.2,188.6,184.1L188.6,184.1z"/>
	<path class="st2" d="M234.9,153.4c0,0-19.3,6.7-34.1,5.1l3.7,32.4c0,0-5.4,2.4-12-5c0,0-8.8-39.5-5.2-41.7
		c3.7-2.2,38.6-2.5,38.6-2.5L234.9,153.4z"/>
	<path class="st2" d="M202.2,191.9c-2.3,0-6-0.9-10.1-5.5c-0.1-0.1-0.1-0.1-0.1-0.2c-1.5-6.7-8.7-40-4.9-42.3
		c3.8-2.3,37.4-2.6,38.8-2.6c0.2,0,0.3,0.1,0.4,0.2l9.1,11.6c0.2,0.2,0.1,0.5-0.1,0.7c0,0-0.1,0.1-0.1,0.1c-0.2,0.1-19,6.6-33.7,5.2
		l3.7,31.8c0,0.2-0.1,0.4-0.3,0.5C203.9,191.8,203.1,191.9,202.2,191.9z M192.9,185.8c5.4,5.9,9.8,5.2,11,4.8l-3.7-32
		c0-0.2,0-0.3,0.1-0.4c0.1-0.1,0.3-0.2,0.4-0.2c13,1.4,29.7-3.7,33.3-4.9l-8.5-10.9c-9.9,0.1-35.2,0.7-38,2.4
		C185.3,146.1,189.3,169.6,192.9,185.8L192.9,185.8z"/>
	<path class="st2" d="M245.4,147c0,0-0.8,30.4,0.3,30.9c1,0.4,30.6,21.9,30.6,21.9l1.1,9.9c0,0-41.3-17.7-43.4-23.2
		c-2.2-5.5-10.5-37.8-10.5-37.8L245.4,147z"/>
	<path class="st2" d="M277.3,210.1c-0.1,0-0.1,0-0.2,0c-1.7-0.7-41.5-17.9-43.7-23.5c-2.2-5.5-10.2-36.5-10.5-37.8
		c-0.1-0.3,0.1-0.5,0.3-0.6c0,0,0.1,0,0.1,0l22-1.6c0.3,0,0.5,0.2,0.5,0.5c0,0,0,0,0,0c-0.3,11-0.5,28.7,0.1,30.4
		c2.4,1.5,27.6,19.7,30.4,21.8c0.1,0.1,0.2,0.2,0.2,0.4l1.1,9.9c0,0.2-0.1,0.4-0.2,0.5C277.4,210.1,277.3,210.1,277.3,210.1z
		 M224,149.1c1.1,4.4,8.3,32.2,10.3,37.1c1.7,4.3,30.4,17.4,42.4,22.6l-1-8.8c-11.7-8.5-29.3-21.2-30.3-21.6
		c-0.4-0.2-1.3-0.6-0.6-30.8L224,149.1z M246,177.5L246,177.5z M245.8,177.3L245.8,177.3z"/>
	<path class="st4" d="M202.5,102.5c0,0,1.1-6.7,20.6-10.2c4.7-0.9,9.5-0.6,14.1,0.8c0.7,3,7,46.5,9.7,56.7c0,0-23.4,8.6-35.2-5.6
		C211.7,144.1,204.2,105.7,202.5,102.5z"/>
	<path class="st4" d="M232.2,91.9c0,0,19.6,4.4,24.4,7.4c4.7,3,23.6,23.1,23.6,23.1l-12.4,7c0,0-11.7-14.1-15.2-16.1
		c-3.5-2-18.8-0.4-18.8-0.4L232.2,91.9z"/>
	<path class="st4" d="M202.5,102.5c0,0-11.2,20.4-13,19.3c-1.9-1.1-9.9-13.2-9.9-13.2l-8.9,10.1c0,0,7.3,22.8,18,20.2
		c10.7-2.6,27.1-21.6,27.1-21.6L202.5,102.5z"/>
	<path class="st2" d="M200.2,132.9c-0.2,0-0.3-0.1-0.4-0.2c-0.1-0.2-0.1-0.5,0.2-0.7c8.9-5.6,15.4-14.8,15.4-14.9
		c0.2-0.2,0.5-0.3,0.7-0.1c0.2,0.2,0.3,0.4,0.1,0.7c-0.1,0.1-6.7,9.5-15.7,15.2C200.4,132.8,200.3,132.9,200.2,132.9z"/>
	<path class="st2" d="M244.9,140.9c-0.2,0-0.4-0.2-0.5-0.4c-1.2-6-5.7-36.1-5.7-36.4c0-0.3,0.1-0.5,0.4-0.6c0,0,0,0,0,0
		c0.3,0,0.5,0.1,0.6,0.4c0,0,0,0,0,0c0,0.3,4.5,30.3,5.7,36.3c0.1,0.3-0.1,0.5-0.4,0.6c0,0,0,0,0,0L244.9,140.9z"/>
	<path class="st0" d="M270.9,205.4c-2.2-7.2,0.2-10.6,2.8-10.7c2.6-0.1,4.3-0.5,6.3,6.5c2.1,7.1,2.2,18.3-1.8,18.9
		C274.1,220.7,273.1,212.7,270.9,205.4z"/>
	<path class="st2" d="M277.8,220.7c-3.3,0-4.6-4.9-6-10.5c-0.4-1.5-0.8-3.1-1.3-4.6c-1.3-4.2-1.2-7.6,0.3-9.6c0.7-1,1.8-1.7,3-1.8
		h0.3c2.8-0.2,4.5,0.1,6.5,6.9c1.7,6,2.1,14.6-0.1,18c-0.5,0.8-1.3,1.4-2.2,1.5L277.8,220.7z M274.9,195.2c-0.3,0-0.6,0-0.9,0h-0.3
		c-0.9,0.1-1.7,0.6-2.2,1.3c-0.7,1-1.7,3.6-0.1,8.7l0,0c0.5,1.6,0.9,3.1,1.3,4.7c1.4,5.4,2.6,10.1,5.4,9.7c0.6-0.1,1.2-0.5,1.5-1.1
		c2-3,1.6-11.5-0.1-17.2C277.9,195.7,276.7,195.2,274.9,195.2z"/>
</g>
</svg>
